<mxfile host="app.diagrams.net" agent="Mozilla/5.0 (Windows NT 10.0; Win64; x64) AppleWebKit/537.36 (KHTML, like Gecko) Chrome/129.0.0.0 Safari/537.36" version="24.7.17">
  <diagram id="6a731a19-8d31-9384-78a2-239565b7b9f0" name="Page-1">
    <mxGraphModel dx="1955" dy="716" grid="1" gridSize="10" guides="1" tooltips="1" connect="1" arrows="1" fold="1" page="1" pageScale="1" pageWidth="1169" pageHeight="827" background="none" math="0" shadow="0">
      <root>
        <mxCell id="0" />
        <mxCell id="1" parent="0" />
        <mxCell id="2" value="start" style="shape=mxgraph.flowchart.terminator;strokeWidth=2;gradientDirection=radial;fontStyle=0;html=1;fillColor=#e1d5e7;strokeColor=#9673a6;fillStyle=zigzag-line;rounded=1;fontFamily=Courier New;" parent="1" vertex="1">
          <mxGeometry x="260" y="60" width="120" height="30" as="geometry" />
        </mxCell>
        <mxCell id="40" value="end" style="shape=mxgraph.flowchart.terminator;strokeWidth=2;gradientDirection=north;fontStyle=0;html=1;rounded=1;fillColor=#e1d5e7;strokeColor=#9673a6;fillStyle=zigzag-line;" parent="1" vertex="1">
          <mxGeometry x="260" y="1400" width="120" height="30" as="geometry" />
        </mxCell>
        <mxCell id="43" value="" style="edgeStyle=elbowEdgeStyle;elbow=vertical;entryX=0.5;entryY=0;entryPerimeter=0;fontStyle=1;strokeColor=#9673a6;strokeWidth=1;html=1;fillColor=#e1d5e7;" parent="1" target="40" edge="1">
          <mxGeometry width="100" height="100" as="geometry">
            <mxPoint x="320" y="1330" as="sourcePoint" />
            <mxPoint x="100" y="-1120" as="targetPoint" />
            <Array as="points" />
          </mxGeometry>
        </mxCell>
        <mxCell id="nvhNC7b3r2czrJxHWV48-55" value="" style="endArrow=classic;html=1;rounded=1;fillColor=#e1d5e7;strokeColor=#9673a6;" parent="1" edge="1">
          <mxGeometry width="50" height="50" relative="1" as="geometry">
            <mxPoint x="320" y="90" as="sourcePoint" />
            <mxPoint x="320" y="130" as="targetPoint" />
          </mxGeometry>
        </mxCell>
        <mxCell id="nvhNC7b3r2czrJxHWV48-56" value="ввод x" style="shape=parallelogram;perimeter=parallelogramPerimeter;whiteSpace=wrap;html=1;fixedSize=1;fillColor=#e1d5e7;strokeColor=#9673a6;rounded=1;fontFamily=Courier New;" parent="1" vertex="1">
          <mxGeometry x="260" y="130" width="120" height="40" as="geometry" />
        </mxCell>
        <mxCell id="nvhNC7b3r2czrJxHWV48-58" value="" style="endArrow=classic;html=1;rounded=1;fillColor=#e1d5e7;strokeColor=#9673a6;" parent="1" edge="1">
          <mxGeometry width="50" height="50" relative="1" as="geometry">
            <mxPoint x="319.5" y="170" as="sourcePoint" />
            <mxPoint x="319.5" y="210" as="targetPoint" />
          </mxGeometry>
        </mxCell>
        <mxCell id="nvhNC7b3r2czrJxHWV48-59" value="&lt;font&gt;a = 0,5&lt;/font&gt;&lt;div&gt;&lt;font&gt;b1 = 4,5&lt;/font&gt;&lt;/div&gt;&lt;div&gt;&lt;font&gt;b2 = 3,7&lt;/font&gt;&lt;/div&gt;&lt;div&gt;&lt;font&gt;b3 = 2,7&lt;/font&gt;&lt;/div&gt;&lt;div&gt;&lt;font&gt;z1 = e&lt;sup&gt;ax&lt;/sup&gt;&lt;/font&gt;&lt;/div&gt;&lt;div&gt;&lt;font&gt;z1 = e&lt;sup&gt;2ax&lt;/sup&gt;&lt;sup&gt;&lt;br&gt;&lt;/sup&gt;&lt;/font&gt;&lt;/div&gt;&lt;div&gt;&lt;font&gt;z1 = e&lt;sup style=&quot;&quot;&gt;2,5ax&lt;/sup&gt;&lt;/font&gt;&lt;sup&gt;&lt;br&gt;&lt;/sup&gt;&lt;/div&gt;" style="rounded=1;whiteSpace=wrap;html=1;fontFamily=Courier New;fillColor=#e1d5e7;strokeColor=#9673a6;fillStyle=auto;glass=0;" parent="1" vertex="1">
          <mxGeometry x="220" y="210" width="200" height="130" as="geometry" />
        </mxCell>
        <mxCell id="nvhNC7b3r2czrJxHWV48-61" value="" style="endArrow=classic;html=1;rounded=1;fillColor=#e1d5e7;strokeColor=#9673a6;" parent="1" edge="1">
          <mxGeometry width="50" height="50" relative="1" as="geometry">
            <mxPoint x="319.5" y="340" as="sourcePoint" />
            <mxPoint x="319.5" y="380" as="targetPoint" />
          </mxGeometry>
        </mxCell>
        <mxCell id="nvhNC7b3r2czrJxHWV48-62" value="x &amp;lt;= 5a ?" style="rhombus;whiteSpace=wrap;html=1;rounded=1;glass=0;fillStyle=dots;strokeColor=#9673a6;align=center;verticalAlign=middle;fontFamily=Courier New;fontSize=18;fontColor=default;fillColor=#e1d5e7;" parent="1" vertex="1">
          <mxGeometry x="230" y="380" width="180" height="80" as="geometry" />
        </mxCell>
        <mxCell id="nvhNC7b3r2czrJxHWV48-63" value="" style="endArrow=classic;html=1;rounded=1;fontFamily=Courier New;fontSize=12;fontColor=default;fillColor=#e1d5e7;strokeColor=#9673a6;" parent="1" edge="1">
          <mxGeometry width="50" height="50" relative="1" as="geometry">
            <mxPoint x="410" y="420" as="sourcePoint" />
            <mxPoint x="480" y="520" as="targetPoint" />
            <Array as="points">
              <mxPoint x="480" y="420" />
            </Array>
          </mxGeometry>
        </mxCell>
        <mxCell id="nvhNC7b3r2czrJxHWV48-64" value="" style="endArrow=classic;html=1;rounded=1;fontFamily=Courier New;fontSize=12;fontColor=default;fillColor=#e1d5e7;strokeColor=#9673a6;" parent="1" edge="1">
          <mxGeometry width="50" height="50" relative="1" as="geometry">
            <mxPoint x="230" y="420" as="sourcePoint" />
            <mxPoint x="170" y="520" as="targetPoint" />
            <Array as="points">
              <mxPoint x="170" y="420" />
            </Array>
          </mxGeometry>
        </mxCell>
        <mxCell id="nvhNC7b3r2czrJxHWV48-65" value="да" style="text;html=1;align=center;verticalAlign=middle;resizable=0;points=[];autosize=1;strokeColor=none;fillColor=none;fontFamily=Courier New;fontSize=12;fontColor=default;" parent="1" vertex="1">
          <mxGeometry x="420" y="380" width="40" height="30" as="geometry" />
        </mxCell>
        <mxCell id="nvhNC7b3r2czrJxHWV48-66" value="нет" style="text;html=1;align=center;verticalAlign=middle;resizable=0;points=[];autosize=1;strokeColor=none;fillColor=none;fontFamily=Courier New;fontSize=12;fontColor=default;" parent="1" vertex="1">
          <mxGeometry x="170" y="384" width="50" height="30" as="geometry" />
        </mxCell>
        <mxCell id="nvhNC7b3r2czrJxHWV48-67" value="y1 = 2.5b1&lt;sup&gt;2&lt;/sup&gt; + ax - 4.5cosxz1&lt;div&gt;y2 = 2.5b2&lt;sup&gt;2&lt;/sup&gt;&amp;nbsp;+ ax - 4.5cosxz2&lt;br&gt;&lt;/div&gt;&lt;div&gt;y3 = 2.5b3&lt;sup&gt;2&lt;/sup&gt;&amp;nbsp;+ ax - 4.5cosxz3&lt;br&gt;&lt;/div&gt;" style="rounded=1;whiteSpace=wrap;html=1;glass=0;fillStyle=auto;strokeColor=#9673a6;align=center;verticalAlign=middle;fontFamily=Courier New;fontSize=12;fontColor=default;fillColor=#e1d5e7;" parent="1" vertex="1">
          <mxGeometry x="370" y="520" width="230" height="60" as="geometry" />
        </mxCell>
        <mxCell id="nvhNC7b3r2czrJxHWV48-68" value="" style="endArrow=classic;html=1;rounded=1;fontFamily=Courier New;fontSize=12;fontColor=default;fillColor=#e1d5e7;strokeColor=#9673a6;exitX=0.47;exitY=1;exitDx=0;exitDy=0;exitPerimeter=0;" parent="1" source="nvhNC7b3r2czrJxHWV48-67" edge="1">
          <mxGeometry width="50" height="50" relative="1" as="geometry">
            <mxPoint x="405" y="690" as="sourcePoint" />
            <mxPoint x="320" y="1130" as="targetPoint" />
            <Array as="points">
              <mxPoint x="480" y="1130" />
            </Array>
          </mxGeometry>
        </mxCell>
        <mxCell id="nvhNC7b3r2czrJxHWV48-69" value="вывод y1, y2, y3" style="shape=parallelogram;perimeter=parallelogramPerimeter;whiteSpace=wrap;html=1;fixedSize=1;rounded=1;glass=0;fillStyle=auto;strokeColor=#9673a6;align=center;verticalAlign=middle;fontFamily=Courier New;fontSize=12;fontColor=default;fillColor=#e1d5e7;" parent="1" vertex="1">
          <mxGeometry x="235" y="1270" width="170" height="60" as="geometry" />
        </mxCell>
        <mxCell id="nvhNC7b3r2czrJxHWV48-70" value="" style="edgeStyle=elbowEdgeStyle;elbow=vertical;entryX=0.5;entryY=0;fontStyle=1;strokeColor=#9673a6;strokeWidth=1;html=1;fillColor=#e1d5e7;entryDx=0;entryDy=0;" parent="1" target="nvhNC7b3r2czrJxHWV48-69" edge="1">
          <mxGeometry width="100" height="100" as="geometry">
            <mxPoint x="320" y="1130" as="sourcePoint" />
            <mxPoint x="319.5" y="1160" as="targetPoint" />
            <Array as="points" />
          </mxGeometry>
        </mxCell>
        <mxCell id="nvhNC7b3r2czrJxHWV48-71" value="&lt;font style=&quot;font-size: 16px;&quot;&gt;x &amp;gt; b1&lt;/font&gt;" style="rhombus;whiteSpace=wrap;html=1;rounded=1;glass=0;fillStyle=dots;strokeColor=#9673a6;align=center;verticalAlign=middle;fontFamily=Courier New;fontSize=12;fontColor=default;fillColor=#e1d5e7;" parent="1" vertex="1">
          <mxGeometry x="70" y="520" width="190" height="80" as="geometry" />
        </mxCell>
        <mxCell id="nvhNC7b3r2czrJxHWV48-73" value="" style="endArrow=classic;html=1;rounded=1;fontFamily=Courier New;fontSize=12;fontColor=default;fillColor=#e1d5e7;strokeColor=#9673a6;" parent="1" edge="1">
          <mxGeometry width="50" height="50" relative="1" as="geometry">
            <mxPoint x="260" y="560" as="sourcePoint" />
            <mxPoint x="330" y="620" as="targetPoint" />
            <Array as="points">
              <mxPoint x="330" y="560" />
            </Array>
          </mxGeometry>
        </mxCell>
        <mxCell id="nvhNC7b3r2czrJxHWV48-74" value="" style="endArrow=classic;html=1;rounded=1;fontFamily=Courier New;fontSize=12;fontColor=default;fillColor=#e1d5e7;strokeColor=#9673a6;" parent="1" edge="1">
          <mxGeometry width="50" height="50" relative="1" as="geometry">
            <mxPoint x="70" y="560" as="sourcePoint" />
            <mxPoint x="10" y="660" as="targetPoint" />
            <Array as="points">
              <mxPoint x="10" y="560" />
            </Array>
          </mxGeometry>
        </mxCell>
        <mxCell id="nvhNC7b3r2czrJxHWV48-75" value="да" style="text;html=1;align=center;verticalAlign=middle;resizable=0;points=[];autosize=1;strokeColor=none;fillColor=none;fontFamily=Courier New;fontSize=12;fontColor=default;" parent="1" vertex="1">
          <mxGeometry x="260" y="520" width="40" height="30" as="geometry" />
        </mxCell>
        <mxCell id="nvhNC7b3r2czrJxHWV48-76" value="нет" style="text;html=1;align=center;verticalAlign=middle;resizable=0;points=[];autosize=1;strokeColor=none;fillColor=none;fontFamily=Courier New;fontSize=12;fontColor=default;" parent="1" vertex="1">
          <mxGeometry x="20" y="520" width="50" height="30" as="geometry" />
        </mxCell>
        <mxCell id="nvhNC7b3r2czrJxHWV48-77" value="y1 =(a&lt;sup&gt;2&lt;/sup&gt; - 5.4x)&lt;sup&gt;3&lt;/sup&gt; + ln(xz1)&lt;div&gt;y2 =(a&lt;sup&gt;2&lt;/sup&gt;&amp;nbsp;- 5.4x)&lt;sup&gt;3&lt;/sup&gt;&amp;nbsp;+ ln(xz2)&lt;br&gt;&lt;/div&gt;&lt;div&gt;y3 =(a&lt;sup&gt;2&lt;/sup&gt;&amp;nbsp;- 5.4x)&lt;sup&gt;3&lt;/sup&gt;&amp;nbsp;+ ln(xz3)&lt;br&gt;&lt;/div&gt;" style="rounded=1;whiteSpace=wrap;html=1;glass=0;fillStyle=auto;align=center;verticalAlign=middle;fontFamily=Courier New;fontSize=12;fillColor=#e1d5e7;strokeColor=#9673a6;" parent="1" vertex="1">
          <mxGeometry x="220" y="620" width="240" height="60" as="geometry" />
        </mxCell>
        <mxCell id="nvhNC7b3r2czrJxHWV48-78" value="&lt;font style=&quot;font-size: 16px;&quot;&gt;x &amp;gt; b2&lt;/font&gt;" style="rhombus;whiteSpace=wrap;html=1;rounded=1;glass=0;fillStyle=dots;strokeColor=#9673a6;align=center;verticalAlign=middle;fontFamily=Courier New;fontSize=12;fontColor=default;fillColor=#e1d5e7;" parent="1" vertex="1">
          <mxGeometry x="-90" y="760" width="190" height="80" as="geometry" />
        </mxCell>
        <mxCell id="nvhNC7b3r2czrJxHWV48-79" value="y1 =&amp;nbsp;&lt;span style=&quot;color: rgb(31, 31, 31); font-family: &amp;quot;Google Sans&amp;quot;, Arial, sans-serif; font-size: 20px; text-align: left; background-color: rgb(255, 255, 255);&quot;&gt;√&lt;/span&gt;6.5b1&lt;sup&gt;2&lt;/sup&gt; + (a - x&lt;sup&gt;3&lt;/sup&gt;)*z1" style="rounded=1;whiteSpace=wrap;html=1;glass=0;fillStyle=auto;align=center;verticalAlign=middle;fontFamily=Courier New;fontSize=12;strokeWidth=5;strokeColor=#dacaf2;" parent="1" vertex="1">
          <mxGeometry x="-120" y="660" width="270" height="60" as="geometry" />
        </mxCell>
        <mxCell id="nvhNC7b3r2czrJxHWV48-80" value="" style="endArrow=classic;html=1;rounded=1;fillColor=#e1d5e7;strokeColor=#9673a6;" parent="1" edge="1">
          <mxGeometry width="50" height="50" relative="1" as="geometry">
            <mxPoint x="10" y="720" as="sourcePoint" />
            <mxPoint x="10" y="760" as="targetPoint" />
          </mxGeometry>
        </mxCell>
        <mxCell id="nvhNC7b3r2czrJxHWV48-81" value="" style="endArrow=classic;html=1;rounded=1;fontFamily=Courier New;fontSize=12;fontColor=default;fillColor=#e1d5e7;strokeColor=#9673a6;" parent="1" edge="1">
          <mxGeometry width="50" height="50" relative="1" as="geometry">
            <mxPoint x="100" y="800" as="sourcePoint" />
            <mxPoint x="170" y="860" as="targetPoint" />
            <Array as="points">
              <mxPoint x="170" y="800" />
            </Array>
          </mxGeometry>
        </mxCell>
        <mxCell id="nvhNC7b3r2czrJxHWV48-82" value="" style="endArrow=classic;html=1;rounded=1;fontFamily=Courier New;fontSize=12;fontColor=default;fillColor=#e1d5e7;strokeColor=#9673a6;" parent="1" edge="1">
          <mxGeometry width="50" height="50" relative="1" as="geometry">
            <mxPoint x="-90" y="800" as="sourcePoint" />
            <mxPoint x="-150" y="850" as="targetPoint" />
            <Array as="points">
              <mxPoint x="-150" y="800" />
            </Array>
          </mxGeometry>
        </mxCell>
        <mxCell id="nvhNC7b3r2czrJxHWV48-83" value="" style="endArrow=classic;html=1;rounded=1;fontFamily=Courier New;fontSize=12;fontColor=default;exitX=0.425;exitY=0.967;exitDx=0;exitDy=0;exitPerimeter=0;fillColor=#e1d5e7;strokeColor=#9673a6;" parent="1" source="nvhNC7b3r2czrJxHWV48-77" edge="1">
          <mxGeometry width="50" height="50" relative="1" as="geometry">
            <mxPoint x="330" y="680" as="sourcePoint" />
            <mxPoint x="320" y="1130" as="targetPoint" />
          </mxGeometry>
        </mxCell>
        <mxCell id="nvhNC7b3r2czrJxHWV48-84" value="да" style="text;html=1;align=center;verticalAlign=middle;resizable=0;points=[];autosize=1;strokeColor=none;fillColor=none;fontFamily=Courier New;fontSize=12;fontColor=default;" parent="1" vertex="1">
          <mxGeometry x="110" y="760" width="40" height="30" as="geometry" />
        </mxCell>
        <mxCell id="nvhNC7b3r2czrJxHWV48-85" value="нет" style="text;html=1;align=center;verticalAlign=middle;resizable=0;points=[];autosize=1;strokeColor=none;fillColor=none;fontFamily=Courier New;fontSize=12;fontColor=default;" parent="1" vertex="1">
          <mxGeometry x="-140" y="760" width="50" height="30" as="geometry" />
        </mxCell>
        <mxCell id="nvhNC7b3r2czrJxHWV48-87" value="&lt;div&gt;y2 =(a&lt;sup&gt;2&lt;/sup&gt;&amp;nbsp;- 5.4x)&lt;sup&gt;3&lt;/sup&gt;&amp;nbsp;+ ln(xz2)&lt;br&gt;&lt;/div&gt;&lt;div&gt;y3 =(a&lt;sup&gt;2&lt;/sup&gt;&amp;nbsp;- 5.4x)&lt;sup&gt;3&lt;/sup&gt;&amp;nbsp;+ ln(xz3)&lt;br&gt;&lt;/div&gt;" style="rounded=1;whiteSpace=wrap;html=1;glass=0;fillStyle=auto;align=center;verticalAlign=middle;fontFamily=Courier New;fontSize=12;fillColor=#e1d5e7;strokeColor=#9673a6;" parent="1" vertex="1">
          <mxGeometry x="50" y="860" width="240" height="60" as="geometry" />
        </mxCell>
        <mxCell id="nvhNC7b3r2czrJxHWV48-88" value="" style="endArrow=classic;html=1;rounded=1;fontFamily=Courier New;fontSize=12;fontColor=default;fillColor=#e1d5e7;strokeColor=#9673a6;exitX=0.5;exitY=1;exitDx=0;exitDy=0;" parent="1" source="nvhNC7b3r2czrJxHWV48-87" edge="1">
          <mxGeometry width="50" height="50" relative="1" as="geometry">
            <mxPoint x="95" y="1010" as="sourcePoint" />
            <mxPoint x="320" y="1130" as="targetPoint" />
            <Array as="points">
              <mxPoint x="170" y="1130" />
            </Array>
          </mxGeometry>
        </mxCell>
        <mxCell id="nvhNC7b3r2czrJxHWV48-89" value="y2 =&amp;nbsp;&lt;span style=&quot;color: rgb(31, 31, 31); font-family: &amp;quot;Google Sans&amp;quot;, Arial, sans-serif; font-size: 20px; text-align: left; background-color: rgb(255, 255, 255);&quot;&gt;√&lt;/span&gt;6.5b2&lt;sup&gt;2&lt;/sup&gt; + (a - x&lt;sup&gt;3&lt;/sup&gt;)*z2" style="rounded=1;whiteSpace=wrap;html=1;glass=0;fillStyle=auto;align=center;verticalAlign=middle;fontFamily=Courier New;fontSize=12;strokeWidth=5;strokeColor=#dacaf2;" parent="1" vertex="1">
          <mxGeometry x="-270" y="850" width="270" height="60" as="geometry" />
        </mxCell>
        <mxCell id="nvhNC7b3r2czrJxHWV48-90" value="&lt;font style=&quot;font-size: 16px;&quot;&gt;x &amp;gt; b3&lt;/font&gt;" style="rhombus;whiteSpace=wrap;html=1;rounded=1;glass=0;fillStyle=dots;strokeColor=#9673a6;align=center;verticalAlign=middle;fontFamily=Courier New;fontSize=12;fontColor=default;fillColor=#e1d5e7;" parent="1" vertex="1">
          <mxGeometry x="-250" y="950" width="190" height="80" as="geometry" />
        </mxCell>
        <mxCell id="nvhNC7b3r2czrJxHWV48-91" value="" style="endArrow=classic;html=1;rounded=1;fillColor=#e1d5e7;strokeColor=#9673a6;" parent="1" edge="1">
          <mxGeometry width="50" height="50" relative="1" as="geometry">
            <mxPoint x="-150" y="910" as="sourcePoint" />
            <mxPoint x="-150" y="950" as="targetPoint" />
          </mxGeometry>
        </mxCell>
        <mxCell id="nvhNC7b3r2czrJxHWV48-92" value="" style="endArrow=classic;html=1;rounded=1;fontFamily=Courier New;fontSize=12;fontColor=default;fillColor=#e1d5e7;strokeColor=#9673a6;" parent="1" edge="1">
          <mxGeometry width="50" height="50" relative="1" as="geometry">
            <mxPoint x="-60" y="990" as="sourcePoint" />
            <mxPoint x="10" y="1050" as="targetPoint" />
            <Array as="points">
              <mxPoint x="10" y="990" />
            </Array>
          </mxGeometry>
        </mxCell>
        <mxCell id="nvhNC7b3r2czrJxHWV48-93" value="" style="endArrow=classic;html=1;rounded=1;fontFamily=Courier New;fontSize=12;fontColor=default;fillColor=#e1d5e7;strokeColor=#9673a6;" parent="1" edge="1">
          <mxGeometry width="50" height="50" relative="1" as="geometry">
            <mxPoint x="-250" y="990" as="sourcePoint" />
            <mxPoint x="-310" y="1040" as="targetPoint" />
            <Array as="points">
              <mxPoint x="-310" y="990" />
            </Array>
          </mxGeometry>
        </mxCell>
        <mxCell id="nvhNC7b3r2czrJxHWV48-94" value="да" style="text;html=1;align=center;verticalAlign=middle;resizable=0;points=[];autosize=1;strokeColor=none;fillColor=none;fontFamily=Courier New;fontSize=12;fontColor=default;" parent="1" vertex="1">
          <mxGeometry x="-50" y="950" width="40" height="30" as="geometry" />
        </mxCell>
        <mxCell id="nvhNC7b3r2czrJxHWV48-95" value="нет" style="text;html=1;align=center;verticalAlign=middle;resizable=0;points=[];autosize=1;strokeColor=none;fillColor=none;fontFamily=Courier New;fontSize=12;fontColor=default;" parent="1" vertex="1">
          <mxGeometry x="-300" y="950" width="50" height="30" as="geometry" />
        </mxCell>
        <mxCell id="nvhNC7b3r2czrJxHWV48-96" value="&lt;div&gt;&lt;span style=&quot;background-color: initial;&quot;&gt;y3 =(a&lt;/span&gt;&lt;sup style=&quot;background-color: initial;&quot;&gt;2&lt;/sup&gt;&lt;span style=&quot;background-color: initial;&quot;&gt;&amp;nbsp;- 5.4x)&lt;/span&gt;&lt;sup style=&quot;background-color: initial;&quot;&gt;3&lt;/sup&gt;&lt;span style=&quot;background-color: initial;&quot;&gt;&amp;nbsp;+ ln(xz3)&lt;/span&gt;&lt;br&gt;&lt;/div&gt;" style="rounded=1;whiteSpace=wrap;html=1;glass=0;fillStyle=auto;align=center;verticalAlign=middle;fontFamily=Courier New;fontSize=12;fillColor=#e1d5e7;strokeColor=#9673a6;" parent="1" vertex="1">
          <mxGeometry x="-100" y="1050" width="240" height="60" as="geometry" />
        </mxCell>
        <mxCell id="nvhNC7b3r2czrJxHWV48-97" value="y3 =&amp;nbsp;&lt;span style=&quot;color: rgb(31, 31, 31); font-family: &amp;quot;Google Sans&amp;quot;, Arial, sans-serif; font-size: 20px; text-align: left; background-color: rgb(255, 255, 255);&quot;&gt;√&lt;/span&gt;6.5b3&lt;sup&gt;2&lt;/sup&gt; + (a - x&lt;sup&gt;3&lt;/sup&gt;)*z3" style="rounded=1;whiteSpace=wrap;html=1;glass=0;fillStyle=auto;align=center;verticalAlign=middle;fontFamily=Courier New;fontSize=12;strokeWidth=5;strokeColor=#dacaf2;" parent="1" vertex="1">
          <mxGeometry x="-430" y="1040" width="270" height="60" as="geometry" />
        </mxCell>
        <mxCell id="nvhNC7b3r2czrJxHWV48-98" value="" style="endArrow=none;html=1;rounded=1;fontFamily=Courier New;fontSize=12;fontColor=default;fillColor=#e1d5e7;strokeColor=#9673a6;" parent="1" edge="1">
          <mxGeometry width="50" height="50" relative="1" as="geometry">
            <mxPoint x="-280" y="1160" as="sourcePoint" />
            <mxPoint x="10" y="1110" as="targetPoint" />
            <Array as="points">
              <mxPoint x="10" y="1160" />
            </Array>
          </mxGeometry>
        </mxCell>
        <mxCell id="nvhNC7b3r2czrJxHWV48-99" value="" style="endArrow=none;html=1;rounded=1;fontFamily=Courier New;fontSize=12;fontColor=default;fillColor=#e1d5e7;strokeColor=#9673a6;" parent="1" edge="1">
          <mxGeometry width="50" height="50" relative="1" as="geometry">
            <mxPoint x="-270" y="1160" as="sourcePoint" />
            <mxPoint x="-310" y="1100" as="targetPoint" />
            <Array as="points">
              <mxPoint x="-310" y="1160" />
            </Array>
          </mxGeometry>
        </mxCell>
        <mxCell id="nvhNC7b3r2czrJxHWV48-100" value="" style="endArrow=classic;html=1;rounded=1;fontFamily=Courier New;fontSize=12;fontColor=default;fillColor=#e1d5e7;strokeColor=#9673a6;" parent="1" edge="1">
          <mxGeometry width="50" height="50" relative="1" as="geometry">
            <mxPoint x="-150" y="1160" as="sourcePoint" />
            <mxPoint x="320" y="1210" as="targetPoint" />
            <Array as="points">
              <mxPoint x="-150" y="1210" />
            </Array>
          </mxGeometry>
        </mxCell>
      </root>
    </mxGraphModel>
  </diagram>
</mxfile>
